<?xml version="1.0" standalone="no"?>
<!DOCTYPE svg PUBLIC "-//W3C//DTD SVG 20010904//EN"
 "http://www.w3.org/TR/2001/REC-SVG-20010904/DTD/svg10.dtd">
<svg version="1.0" xmlns="http://www.w3.org/2000/svg"
 width="447.000000pt" height="447.000000pt" viewBox="0 0 447.000000 447.000000"
 preserveAspectRatio="xMidYMid meet">

<g transform="translate(0.000000,447.000000) scale(0.100000,-0.100000)"
fill="#000000" stroke="none">
<path d="M1835 4149 c-201 -25 -539 -202 -796 -418 -275 -230 -570 -633 -697
-953 -59 -148 -83 -248 -89 -369 -7 -125 6 -191 48 -248 79 -109 224 -97 395
32 127 97 384 391 530 608 67 100 76 131 43 152 -27 17 -44 3 -114 -99 -80
-114 -233 -307 -329 -414 -194 -216 -367 -310 -441 -240 -33 31 -45 78 -45
180 0 315 261 793 639 1170 197 196 405 339 639 440 418 180 560 28 416 -447
-19 -62 -80 -233 -135 -380 -56 -148 -154 -428 -219 -623 -80 -241 -145 -416
-203 -546 -173 -390 -377 -981 -377 -1094 0 -57 39 -80 72 -42 31 34 183 439
377 1002 126 365 155 430 189 430 13 0 103 32 200 71 192 77 250 92 559 143
344 57 473 69 688 63 224 -6 331 -28 467 -98 114 -58 236 -181 295 -294 140
-269 134 -572 -14 -830 -155 -270 -362 -448 -748 -645 -361 -185 -582 -237
-949 -227 -198 5 -286 22 -388 73 -165 82 -257 239 -246 416 9 134 95 266 240
368 89 63 153 84 229 77 73 -6 79 -10 79 -53 0 -50 22 -95 64 -132 97 -85 190
-45 314 134 12 18 13 18 7 -1 -4 -11 -9 -25 -11 -31 -3 -6 5 -22 16 -37 17
-22 30 -27 63 -27 43 0 107 25 155 58 25 18 130 49 136 41 1 -2 7 -16 13 -30
7 -15 28 -40 49 -55 51 -39 127 -39 240 -1 44 15 88 25 96 22 9 -3 55 1 103
10 48 9 89 15 91 12 4 -4 -47 -35 -301 -183 -27 -16 -144 -76 -259 -134 -115
-58 -214 -113 -220 -123 -15 -23 3 -51 37 -55 15 -2 90 27 199 79 285 134 358
165 481 204 124 39 148 57 127 94 -5 11 -14 21 -20 23 -5 1 11 19 37 38 61 45
76 82 45 113 -21 20 -32 22 -137 23 -63 0 -117 3 -121 7 -13 13 -47 7 -113
-19 -80 -33 -157 -54 -193 -54 -29 0 -68 31 -68 53 1 6 27 29 60 49 70 44 100
93 100 165 0 54 -5 65 -37 82 -52 27 -140 -52 -180 -162 -26 -71 -41 -78 -35
-18 3 39 0 57 -17 84 -43 70 -163 96 -229 49 l-33 -24 8 44 c14 80 9 310 -7
343 -19 37 -60 45 -88 17 -35 -35 -46 -113 -46 -347 l-1 -220 -29 -50 c-44
-76 -101 -127 -139 -123 -35 4 -67 40 -70 83 -2 26 3 30 46 46 72 26 97 46
119 96 49 112 -36 185 -135 116 -22 -15 -53 -51 -70 -81 -25 -45 -33 -53 -51
-47 -185 63 -467 -101 -584 -340 -41 -84 -55 -153 -50 -243 12 -192 122 -350
303 -437 127 -61 207 -77 418 -83 375 -10 611 45 971 227 304 154 484 281 629
446 145 163 231 316 279 493 31 113 31 323 0 446 -24 97 -82 228 -133 303
-137 200 -347 317 -633 353 -176 23 -545 1 -791 -45 -16 -4 51 34 150 83 319
159 542 326 707 531 134 167 174 321 114 439 -28 56 -67 90 -142 124 -42 20
-65 23 -169 23 -134 -1 -191 -13 -337 -75 -110 -47 -209 -103 -320 -183 -259
-186 -441 -385 -640 -705 -37 -59 -72 -114 -77 -122 -15 -22 48 161 149 430
114 304 156 438 176 552 54 310 -72 479 -331 447z m1492 -444 c167 -50 181
-200 39 -399 -93 -130 -305 -313 -491 -426 -208 -126 -697 -336 -928 -399 -82
-23 -151 -41 -153 -41 -12 0 184 337 277 477 186 277 428 504 704 662 211 121
414 167 552 126z m-540 -2156 c20 -17 16 -50 -12 -91 -21 -31 -33 -38 -82 -48
-32 -6 -68 -14 -80 -17 -20 -4 -18 1 18 71 22 42 50 83 62 91 23 17 69 14 94
-6z m-482 -39 c-10 -11 -20 -18 -23 -15 -3 3 3 14 13 25 10 11 20 18 23 15 3
-3 -3 -14 -13 -25z"/>
</g>
</svg>
